<svg width="18" height="18" viewBox="0 0 18 18" fill="none" xmlns="http://www.w3.org/2000/svg">
<path fill-rule="evenodd" clip-rule="evenodd" d="M4.34034 2.75228C4.3153 1.61569 3.50252 0.75 2.18269 0.75C0.86286 0.75 0 1.61569 0 2.75228C0 3.86532 0.837357 4.75594 2.13261 4.75594H2.15727C3.50252 4.75594 4.34034 3.86532 4.34034 2.75228ZM4.08628 6.33815H0.228178V17.9301H4.08628V6.33815ZM13.5577 6.06598C16.0966 6.06598 17.9999 7.72312 17.9999 11.2837L17.9997 17.9302H14.1418V11.7284C14.1418 10.1707 13.5835 9.10775 12.1868 9.10775C11.1209 9.10775 10.4861 9.82434 10.2072 10.5165C10.1052 10.7645 10.0802 11.1101 10.0802 11.4566V17.9305H6.22163C6.22163 17.9305 6.27248 7.42622 6.22163 6.33849H10.0802V7.9804C10.5922 7.1911 11.5093 6.06598 13.5577 6.06598Z" fill="white"/>
</svg>
