<svg width="149" height="30" viewBox="0 0 149 30" fill="none" xmlns="http://www.w3.org/2000/svg">
<path d="M36.4066 9.32741H31.6914V7.0957H43.7902V9.32741H39.075V21.364H36.4432V9.32741H36.4066Z" fill="white"/>
<path d="M58.4478 7.0957V21.364H55.8161V15.2542H48.4325V21.364H45.8008V7.0957H48.4325V12.9859H55.8161V7.0957H58.4478Z" fill="white"/>
<path d="M72.995 19.1323V21.364H62.2852V7.0957H72.7025V9.32741H64.9535V13.0225H71.8253V15.2177H64.9535V19.1689H72.995V19.1323Z" fill="white"/>
<path d="M90.7972 18.0713H83.6695L82.2805 21.364H79.5391L85.9723 7.0957H88.5675L95.0007 21.364H92.2227L90.7972 18.0713ZM89.9199 15.9859L87.215 9.72985L84.5467 15.9859H89.9199Z" fill="white"/>
<path d="M108.817 15.2548C109.292 15.8767 109.512 16.6084 109.512 17.5231C109.512 18.767 109.037 19.7182 108.086 20.3767C107.136 21.0353 105.747 21.4011 103.919 21.4011H96.8281V7.13281H103.517C105.199 7.13281 106.514 7.46208 107.392 8.12062C108.306 8.77915 108.744 9.69379 108.744 10.8279C108.744 11.5231 108.598 12.145 108.269 12.6938C107.94 13.2426 107.501 13.645 106.917 13.9743C107.721 14.1938 108.342 14.6328 108.817 15.2548ZM99.4599 9.18159V13.1328H103.225C104.139 13.1328 104.87 12.9499 105.345 12.6206C105.857 12.2914 106.076 11.8157 106.076 11.1572C106.076 10.4987 105.82 10.0231 105.345 9.69379C104.833 9.36452 104.139 9.18159 103.225 9.18159H99.4599V9.18159ZM106.807 17.2304C106.807 15.8401 105.783 15.1816 103.736 15.1816H99.4599V19.3157H103.736C105.783 19.2792 106.807 18.584 106.807 17.2304Z" fill="white"/>
<path d="M118.173 16.3166V21.3654H115.542V16.3532L109.949 7.06055H112.764L116.931 14.0118L121.134 7.06055H123.729L118.173 16.3166Z" fill="white"/>
<path d="M124.205 21.3653L125.119 19.2067C125.119 19.2067 128.92 19.2067 129.761 19.2067C130.821 19.2067 131.589 19.0238 132.1 18.6945C132.612 18.3653 132.868 17.9263 132.868 17.3775C132.868 16.975 132.722 16.6458 132.429 16.3897C132.137 16.1336 131.771 15.9141 131.333 15.7677C130.894 15.6214 130.273 15.4385 129.542 15.2555C128.482 14.9994 127.604 14.7433 126.946 14.4872C126.289 14.2311 125.704 13.8287 125.229 13.2799C124.753 12.7311 124.534 11.9994 124.534 11.0848C124.534 10.3165 124.753 9.58479 125.155 8.96284C125.594 8.34089 126.215 7.8287 127.056 7.46284C127.897 7.09699 128.957 6.91406 130.163 6.91406C131.004 6.91406 134.842 6.91406 134.842 6.91406L134.038 9.0726C134.038 9.0726 130.784 9.0726 130.163 9.0726C129.14 9.0726 128.372 9.25553 127.86 9.58479C127.349 9.95065 127.093 10.3897 127.093 10.975C127.093 11.3775 127.239 11.7067 127.531 11.9628C127.824 12.2189 128.189 12.4019 128.628 12.5482C129.067 12.6946 129.688 12.8775 130.419 13.0604C131.479 13.3165 132.32 13.536 132.978 13.8287C133.636 14.0848 134.22 14.4872 134.696 15.036C135.171 15.5848 135.39 16.2799 135.39 17.1946C135.39 17.9628 135.171 18.658 134.769 19.3165C134.33 19.9385 133.709 20.4506 132.868 20.8165C132.027 21.1824 130.967 21.3653 129.724 21.3653C128.628 21.3653 124.205 21.3653 124.205 21.3653Z" fill="white"/>
<path d="M136.816 21.3653L137.73 19.2067C137.73 19.2067 141.532 19.2067 142.372 19.2067C143.432 19.2067 144.2 19.0238 144.712 18.6945C145.223 18.3653 145.479 17.9263 145.479 17.3775C145.479 16.975 145.333 16.6458 145.041 16.3897C144.748 16.1336 144.383 15.9141 143.944 15.7677C143.505 15.6214 142.884 15.4385 142.153 15.2555C141.093 14.9994 140.216 14.7433 139.558 14.4872C138.9 14.2311 138.315 13.8287 137.84 13.2799C137.365 12.7311 137.145 11.9994 137.145 11.0848C137.145 10.3165 137.365 9.58479 137.767 8.96284C138.205 8.34089 138.827 7.8287 139.667 7.46284C140.508 7.09699 141.568 6.91406 142.774 6.91406C143.615 6.91406 147.453 6.91406 147.453 6.91406L146.649 9.0726C146.649 9.0726 143.396 9.0726 142.774 9.0726C141.751 9.0726 140.983 9.25553 140.472 9.58479C139.96 9.95065 139.704 10.3897 139.704 10.975C139.704 11.3775 139.85 11.7067 140.143 11.9628C140.435 12.2189 140.801 12.4019 141.239 12.5482C141.678 12.6946 142.299 12.8775 143.03 13.0604C144.09 13.3165 144.931 13.536 145.589 13.8287C146.247 14.0848 146.832 14.4872 147.307 15.036C147.782 15.5848 148.001 16.2799 148.001 17.1946C148.001 17.9628 147.782 18.658 147.38 19.3165C146.941 19.9385 146.32 20.4506 145.479 20.8165C144.639 21.1824 143.579 21.3653 142.336 21.3653C141.276 21.3653 136.816 21.3653 136.816 21.3653Z" fill="white"/>
<path d="M12.5729 9.33008C10.4163 9.33008 8.77148 9.65935 8.77148 9.65935V13.0618H16.3378V9.65935C16.3744 9.65935 14.7295 9.33008 12.5729 9.33008Z" fill="white"/>
<path d="M12.574 0C6.83527 0 0 2.96341 0 2.96341V21L12.574 30L25.1479 21.0366V2.92683C25.1845 2.92683 18.3492 0 12.574 0ZM19.7017 19.061L16.3754 21.3659C16.3754 19.7561 16.3754 16.4634 16.3754 16.4634H8.80909V21.3659L5.55594 19.061V7.09756C5.55594 7.09756 9.64979 6.14634 12.6105 6.14634C15.5713 6.14634 19.7017 7.09756 19.7017 7.09756V19.061Z" fill="white"/>
</svg>
