<svg width="18" height="16" viewBox="0 0 18 16" fill="none" xmlns="http://www.w3.org/2000/svg">
<path fill-rule="evenodd" clip-rule="evenodd" d="M11.7087 0.287207L11.394 0.800196L8.41908 5.65449L12.0017 12.6122L12.5541 11.7124L17.9615 2.88701C17.9799 2.85713 17.9682 2.82061 17.9414 2.79902C17.9397 2.79819 17.9389 2.79653 17.9381 2.79487C17.9372 2.79321 17.9364 2.79155 17.9347 2.79072L17.9297 2.78906C17.9297 2.78906 17.9297 2.7874 17.928 2.7874L12.4989 0.0614257C12.4587 0.0415038 12.4202 0.0282225 12.3834 0.0199219C12.3348 0.00664062 12.2846 0 12.236 0C12.0268 0 11.8209 0.10459 11.7087 0.287207ZM5.50614 15.3C5.79576 15.3 6 15.0742 6 14.6957V2.83223L5.99503 2.82709C5.98991 2.8217 5.98455 2.81606 5.97824 2.8123L0.830357 0.227441H0.828683L0.66462 0.144434C0.569196 0.0962893 0.47712 0.0747069 0.395089 0.0747069C0.162388 0.0747069 0 0.254004 0 0.557813V12.0561C0 12.3632 0.224331 12.7284 0.498884 12.8662L5.16964 15.212C5.29018 15.2718 5.40402 15.3 5.50614 15.3ZM6.85714 10.0323V4.48906L10.7059 11.9664L7.24386 10.2282L6.85714 10.0323ZM17.4743 15.2535C17.7874 15.2535 18 15.051 18 14.6957V4.46084L12.7667 13.0007L16.2288 14.7389L17.0039 15.129C17.173 15.2137 17.3337 15.2535 17.4743 15.2535Z" fill="white"/>
</svg>
