<svg width="18" height="15" viewBox="0 0 18 15" fill="none" xmlns="http://www.w3.org/2000/svg">
<path fill-rule="evenodd" clip-rule="evenodd" d="M4.46558 8.67405L0.317835 7.19243C-0.103368 7.04138 -0.106939 6.47224 0.313148 6.31713L17.3349 0.03217C17.6957 -0.101357 18.068 0.201162 17.9894 0.563928L14.9347 14.6274C14.8626 14.9594 14.4559 15.1098 14.1689 14.9103L9.99882 12.0127C9.74569 11.8366 9.4006 11.846 9.15819 12.0351L6.84615 13.8389C6.57785 14.0489 6.17361 13.932 6.07093 13.6156L4.46558 8.67405ZM13.918 3.10714L5.81223 7.88549C5.50152 8.06901 5.35531 8.42814 5.45553 8.7642L6.33187 11.7116C6.39415 11.9206 6.71089 11.8992 6.74124 11.6834L6.96892 10.067C7.012 9.76277 7.16356 9.48226 7.39883 9.27289L14.0883 3.32121C14.2135 3.21012 14.0635 3.02147 13.918 3.10714Z" fill="white"/>
</svg>
