<svg width="18" height="15" viewBox="0 0 18 15" fill="none" xmlns="http://www.w3.org/2000/svg">
<path d="M17.716 1.83789C17.0643 2.13644 16.3639 2.33733 15.6283 2.42941C16.3774 1.96345 16.9561 1.22963 17.2266 0.353516C16.5234 0.783203 15.7446 1.0957 14.9171 1.26311C14.2545 0.534877 13.3107 0.0800781 12.2641 0.0800781C10.2575 0.0800781 8.62951 1.75977 8.62951 3.83008C8.62951 4.12305 8.66196 4.41044 8.72416 4.68387C5.70343 4.52762 3.02614 3.03209 1.23317 0.763672C0.919471 1.31892 0.740986 1.96345 0.740986 2.65262C0.740986 3.95285 1.38191 5.09961 2.35817 5.77204C1.76052 5.75251 1.20072 5.5851 0.711238 5.30329C0.711238 5.32003 0.711238 5.33398 0.711238 5.35073C0.711238 7.16713 1.96334 8.6822 3.6265 9.02818C3.32091 9.11468 3.0018 9.15932 2.66917 9.15932C2.43389 9.15932 2.20673 9.137 1.98498 9.09236C2.44742 10.5795 3.78876 11.6677 5.37891 11.6956C4.13762 12.7028 2.56911 13.2999 0.865385 13.2999C0.570613 13.2999 0.283954 13.2832 0 13.2497C1.60637 14.3128 3.51833 14.9322 5.57091 14.9322C12.256 14.9322 15.9123 9.21791 15.9123 4.26535C15.9123 4.10073 15.9096 3.9389 15.9014 3.77707C16.6127 3.25251 17.2293 2.59124 17.716 1.83789Z" fill="white"/>
</svg>
